<svg width="50.000000" height="59.000000" viewBox="0 0 50 59" fill="none" xmlns="http://www.w3.org/2000/svg" xmlns:xlink="http://www.w3.org/1999/xlink">
	<desc>
			Created with Pixso.
	</desc>
	<defs/>
	<path id="Vector" d="M48.43 20.12C44.33 22.55 41.8 26.72 41.8 31.35C41.8 36.55 45.06 41.3 50 43.26C49.03 46.27 47.59 49.05 45.78 51.59C43.13 55.18 40.36 58.88 36.26 58.88C32.16 58.88 30.96 56.57 26.14 56.57C21.44 56.57 19.75 59 15.9 59C12.04 59 9.39 55.64 6.38 51.48C2.4 45.69 0.12 38.98 0 31.92C0 20.47 7.71 14.34 15.42 14.34C19.51 14.34 22.89 16.89 25.42 16.89C27.83 16.89 31.68 14.22 36.26 14.22C41.08 14.11 45.66 16.31 48.43 20.12ZM34.09 9.37C36.14 7.05 37.22 4.16 37.34 1.15C37.34 0.8 37.34 0.34 37.22 0C33.73 0.34 30.48 1.96 28.19 4.51C26.14 6.7 24.93 9.48 24.81 12.49C24.81 12.84 24.81 13.18 24.93 13.53C25.18 13.53 25.54 13.65 25.78 13.65C29.03 13.41 32.04 11.8 34.09 9.37Z" fill="#000000" fill-opacity="1.000000" fill-rule="nonzero"/>
</svg>
