<svg width="70.039825" height="71.468994" viewBox="0 0 70.0398 71.469" fill="none" xmlns="http://www.w3.org/2000/svg" xmlns:xlink="http://www.w3.org/1999/xlink">
	<desc>
			Created with Pixso.
	</desc>
	<defs/>
	<path id="Vector" d="M70.03 36.54C70.03 34.01 69.81 31.57 69.39 29.23L35.73 29.23L35.73 43.06L54.96 43.06C54.13 47.52 51.62 51.31 47.83 53.84L47.83 62.81L59.38 62.81C66.14 56.59 70.03 47.42 70.03 36.54Z" fill="#000000" fill-opacity="1.000000" fill-rule="nonzero"/>
	<path id="Vector" d="M35.73 71.46C45.38 71.46 53.47 68.26 59.38 62.81L47.83 53.84C44.63 55.98 40.54 57.25 35.73 57.25C26.42 57.25 18.54 50.97 15.73 42.52L3.8 42.52L3.8 51.78C9.68 63.46 21.76 71.46 35.73 71.46Z" fill="#000000" fill-opacity="1.000000" fill-rule="nonzero"/>
	<path id="Vector" d="M15.73 42.52C15.02 40.37 14.61 38.08 14.61 35.73C14.61 33.37 15.02 31.08 15.73 28.94L15.73 19.68L3.8 19.68C1.29 24.66 -0.01 30.16 6.1e-5 35.73C6.1e-5 41.5 1.38 46.95 3.8 51.78L15.73 42.52Z" fill="#000000" fill-opacity="1.000000" fill-rule="nonzero"/>
	<path id="Vector" d="M35.73 14.21C40.98 14.21 45.69 16.01 49.39 19.55L59.64 9.3C53.45 3.54 45.36 0 35.73 0C21.76 0 9.68 8 3.8 19.68L15.73 28.94C18.54 20.49 26.42 14.21 35.73 14.21Z" fill="#000000" fill-opacity="1.000000" fill-rule="nonzero"/>
</svg>
